<?xml version="1.0" encoding="utf-8"?>
<!-- Generator: Adobe Illustrator 23.0.1, SVG Export Plug-In . SVG Version: 6.00 Build 0)  -->
<svg version="1.1" id="Layer_1" xmlns="http://www.w3.org/2000/svg" xmlns:xlink="http://www.w3.org/1999/xlink" x="0px" y="0px"
	 viewBox="0 0 32 32" style="enable-background:new 0 0 32 32;" xml:space="preserve">
<style type="text/css">
	.st0{fill:#707070;}
</style>
<g>
	<path class="st0" d="M16,13.83c1.68,0,3.05-1.37,3.05-3.05c0-1.35-1.8-4.51-2.35-5.45L16,4.12l-0.71,1.2
		c-0.55,0.94-2.35,4.1-2.35,5.45C12.95,12.46,14.32,13.83,16,13.83z M16,7.42c0.77,1.43,1.42,2.88,1.42,3.36
		c0,0.78-0.63,1.42-1.42,1.42c-0.78,0-1.42-0.64-1.42-1.42C14.59,10.3,15.24,8.85,16,7.42z"/>
	<path class="st0" d="M10.42,24.44c0-0.45-0.37-0.82-0.82-0.82H6.03c-0.45,0-0.82,0.37-0.82,0.82c0,0.45,0.37,0.82,0.82,0.82H9.6
		C10.05,25.26,10.42,24.89,10.42,24.44z"/>
	<path class="st0" d="M14.22,25.26h3.57c0.45,0,0.82-0.37,0.82-0.82c0-0.45-0.37-0.82-0.82-0.82h-3.57c-0.45,0-0.82,0.37-0.82,0.82
		C13.4,24.89,13.77,25.26,14.22,25.26z"/>
	<path class="st0" d="M13.7,26.43h-3.57c-0.45,0-0.82,0.37-0.82,0.82s0.37,0.82,0.82,0.82h3.57c0.45,0,0.82-0.37,0.82-0.82
		S14.15,26.43,13.7,26.43z"/>
	<path class="st0" d="M21.89,26.43h-3.57c-0.45,0-0.82,0.37-0.82,0.82s0.37,0.82,0.82,0.82h3.57c0.45,0,0.82-0.37,0.82-0.82
		S22.34,26.43,21.89,26.43z"/>
	<path class="st0" d="M25.98,23.62h-3.57c-0.45,0-0.82,0.37-0.82,0.82c0,0.45,0.37,0.82,0.82,0.82h3.57c0.45,0,0.82-0.37,0.82-0.82
		C26.8,23.99,26.43,23.62,25.98,23.62z"/>
	<path class="st0" d="M30.18,8.56h-6.2c-0.07-0.69-0.21-1.36-0.45-1.99h6.65c0.45,0,0.82-0.37,0.82-0.82c0-0.45-0.37-0.82-0.82-0.82
		h-7.47C21.27,2.75,18.8,1.31,16,1.31c-2.8,0-5.27,1.44-6.72,3.61H1.82C1.37,4.92,1,5.29,1,5.74c0,0.45,0.37,0.82,0.82,0.82h6.65
		c-0.24,0.63-0.38,1.3-0.45,1.99h-6.2C1.37,8.56,1,8.92,1,9.37s0.37,0.82,0.82,0.82h6.2c0.1,1.01,0.38,1.96,0.83,2.82H1.37v17.68
		h29.28V13.02h-7.49c0.44-0.86,0.72-1.81,0.83-2.82h6.2c0.45,0,0.82-0.37,0.82-0.82S30.63,8.56,30.18,8.56z M16,2.95
		c3.54,0,6.42,2.88,6.42,6.43c0,3.54-2.88,6.43-6.42,6.43c-3.54,0-6.43-2.88-6.43-6.43C9.58,5.83,12.46,2.95,16,2.95z M9.95,14.66
		c0.89,1.02,2.02,1.8,3.31,2.28l-0.01,2.89c-0.68,0.49-1.67,0.63-2.97,0.42c-0.34-0.05-0.69-0.12-1.04-0.2
		c-0.89-0.18-1.81-0.33-2.78-0.34C5.06,19.73,4.08,20,3,20.54v-5.89H9.95z M3,29.05v-6.64c1.22-0.71,2.08-1.04,3.5-1.07
		c0.8-0.01,1.58,0.14,2.42,0.31c0.37,0.07,0.73,0.15,1.1,0.21c1.72,0.27,3.13,0.04,4.21-0.72c0.45-0.35,0.67-0.76,0.67-1.2v-2.61
		c0.36,0.05,0.72,0.11,1.1,0.11c0.37,0,0.72-0.06,1.07-0.11l0,2.71c0.06,0.45,0.33,0.85,0.73,1.11c1.04,0.74,2.44,0.97,4.18,0.7
		c0.37-0.06,0.74-0.13,1.11-0.21c0.83-0.17,1.67-0.29,2.38-0.3c1.44,0.03,2.3,0.36,3.52,1.07v6.64H3z M29.01,14.66v5.89
		c-1.08-0.54-2.06-0.81-3.48-0.84c-0.94,0.02-1.86,0.16-2.74,0.34c-0.35,0.07-0.7,0.14-1.05,0.2c-1.28,0.21-2.29,0.07-3.02-0.3v-3
		c1.3-0.47,2.44-1.26,3.34-2.28H29.01z"/>
</g>
</svg>
