<?xml version="1.0" encoding="utf-8"?>
<!-- Generator: Adobe Illustrator 23.0.1, SVG Export Plug-In . SVG Version: 6.00 Build 0)  -->
<svg version="1.1" id="Layer_1" xmlns="http://www.w3.org/2000/svg" xmlns:xlink="http://www.w3.org/1999/xlink" x="0px" y="0px"
	 viewBox="0 0 32 32" style="enable-background:new 0 0 32 32;" xml:space="preserve">
<style type="text/css">
	.st0{fill:#707070;}
</style>
<g>
	<path class="st0" d="M29.6,9.17H2.4c-0.33,0-0.59-0.19-0.65-0.47C1.71,8.48,1.8,8.21,2.11,8.08L16,2.43l13.89,5.65
		c0.31,0.13,0.4,0.4,0.36,0.61C30.2,8.98,29.93,9.17,29.6,9.17z M29.55,8.93h0.01H29.55z M4.14,8.25h23.72L16,3.43L4.14,8.25z"/>
	<path class="st0" d="M26.12,17.04H5.88V8.71c0-0.25,0.21-0.46,0.46-0.46S6.8,8.46,6.8,8.71v7.42H25.2V8.71
		c0-0.25,0.21-0.46,0.46-0.46c0.25,0,0.46,0.21,0.46,0.46V17.04z"/>
	<path class="st0" d="M29.4,20.1H2.6c-0.26,0-0.48-0.16-0.56-0.41c-0.08-0.24,0-0.51,0.21-0.66l3.82-2.82
		c0.2-0.15,0.49-0.11,0.64,0.1c0.15,0.2,0.11,0.49-0.1,0.64L3.6,19.18H28.4l-3.01-2.22c-0.2-0.15-0.25-0.44-0.1-0.64
		c0.15-0.2,0.44-0.25,0.64-0.1l3.82,2.82c0.21,0.15,0.29,0.42,0.21,0.66C29.88,19.94,29.66,20.1,29.4,20.1z"/>
	<path class="st0" d="M26.12,29.57H5.88v-9.93c0-0.25,0.21-0.46,0.46-0.46s0.46,0.21,0.46,0.46v9.01H25.2v-9.01
		c0-0.25,0.21-0.46,0.46-0.46c0.25,0,0.46,0.21,0.46,0.46V29.57z"/>
	<path class="st0" d="M21.34,29.57c-0.25,0-0.46-0.21-0.46-0.46v-5.1h-9.76v5.1c0,0.25-0.21,0.46-0.46,0.46s-0.46-0.21-0.46-0.46
		v-6.02h11.6v6.02C21.8,29.36,21.59,29.57,21.34,29.57z"/>
	<g>
		<path class="st0" d="M14.62,14.47H8.74v-3.59h5.88V14.47z M9.66,13.56h4.04V11.8H9.66V13.56z"/>
		<path class="st0" d="M23.26,14.47h-5.88v-3.59h5.88V14.47z M18.3,13.56h4.04V11.8H18.3V13.56z"/>
	</g>
</g>
</svg>
