<?xml version="1.0" encoding="utf-8"?>
<!-- Generator: Adobe Illustrator 23.0.1, SVG Export Plug-In . SVG Version: 6.00 Build 0)  -->
<svg version="1.1" id="Layer_1" xmlns="http://www.w3.org/2000/svg" xmlns:xlink="http://www.w3.org/1999/xlink" x="0px" y="0px"
	 viewBox="0 0 32 32" style="enable-background:new 0 0 32 32;" xml:space="preserve">
<style type="text/css">
	.st0{fill:#707070;}
</style>
<g>
	<g>
		<g>
			<path class="st0" d="M27.42,10.22H4.58c-0.25,0-0.45-0.2-0.45-0.45s0.2-0.45,0.45-0.45h22.84c0.25,0,0.45,0.2,0.45,0.45
				S27.67,10.22,27.42,10.22z"/>
			<path class="st0" d="M27.42,14.36h-7.94c-0.25,0-0.45-0.2-0.45-0.45c0-0.25,0.2-0.45,0.45-0.45h7.94c0.25,0,0.45,0.2,0.45,0.45
				C27.87,14.16,27.67,14.36,27.42,14.36z"/>
			<path class="st0" d="M12.94,14.36H4.58c-0.25,0-0.45-0.2-0.45-0.45c0-0.25,0.2-0.45,0.45-0.45h8.36c0.25,0,0.45,0.2,0.45,0.45
				C13.39,14.16,13.19,14.36,12.94,14.36z"/>
			<path class="st0" d="M27.42,18.52h-8.8c-0.25,0-0.45-0.2-0.45-0.45c0-0.25,0.2-0.45,0.45-0.45h8.8c0.25,0,0.45,0.2,0.45,0.45
				C27.87,18.31,27.67,18.52,27.42,18.52z"/>
			<path class="st0" d="M12.03,18.52H4.58c-0.25,0-0.45-0.2-0.45-0.45c0-0.25,0.2-0.45,0.45-0.45h7.45c0.25,0,0.45,0.2,0.45,0.45
				C12.48,18.31,12.28,18.52,12.03,18.52z"/>
			<path class="st0" d="M27.42,22.68H4.58c-0.25,0-0.45-0.2-0.45-0.45c0-0.25,0.2-0.45,0.45-0.45h22.84c0.25,0,0.45,0.2,0.45,0.45
				C27.87,22.48,27.67,22.68,27.42,22.68z"/>
		</g>
		<g>
			<path class="st0" d="M7.11,25.79H2.06V6.21h5.05V25.79z M2.96,24.89h3.25V7.11H2.96V24.89z"/>
			<path class="st0" d="M29.94,25.79h-5.05V6.21h5.05V25.79z M25.79,24.89h3.25V7.11h-3.25V24.89z"/>
		</g>
	</g>
	<path class="st0" d="M14.24,19.73c-0.12,0-0.23-0.04-0.32-0.13c-0.18-0.18-0.18-0.46,0-0.64l2.76-2.76h-3.52l4.29-4.29
		c0.18-0.18,0.46-0.18,0.64,0c0.18,0.18,0.18,0.46,0,0.64l-2.76,2.76h3.52l-4.29,4.29C14.47,19.69,14.35,19.73,14.24,19.73z"/>
</g>
</svg>
