<?xml version="1.0" encoding="utf-8"?>
<!-- Generator: Adobe Illustrator 23.0.1, SVG Export Plug-In . SVG Version: 6.00 Build 0)  -->
<svg version="1.1" id="Layer_1" xmlns="http://www.w3.org/2000/svg" xmlns:xlink="http://www.w3.org/1999/xlink" x="0px" y="0px"
	 viewBox="0 0 32 32" style="enable-background:new 0 0 32 32;" xml:space="preserve">
<style type="text/css">
	.st0{fill:#707070;}
</style>
<g>
	<path class="st0" d="M30.24,4.85c-0.42,0-0.76,0.34-0.76,0.76v6.92h-1.69v-0.84c0-3.77-3.07-6.84-6.84-6.84h-9.9
		c-3.77,0-6.84,3.07-6.84,6.84v0.84H2.52V5.61c0-0.42-0.34-0.76-0.76-0.76S1,5.19,1,5.61v20.79c0,0.42,0.34,0.76,0.76,0.76
		s0.76-0.34,0.76-0.76v-4.15h1.69v3.84c0,0.59,0.48,1.07,1.06,1.07h21.46c0.59,0,1.06-0.48,1.06-1.07v-3.84h1.69v4.15
		c0,0.42,0.34,0.76,0.76,0.76S31,26.81,31,26.39V5.61C31,5.19,30.66,4.85,30.24,4.85z M2.52,20.72v-6.67h1.69v6.67H2.52z
		 M26.27,25.63h-9.28V23.4c0-0.42-0.34-0.76-0.76-0.76c-0.42,0-0.76,0.34-0.76,0.76v2.23H5.73V11.69c0-2.93,2.39-5.32,5.32-5.32
		h4.11v1.45c0,0.42,0.34,0.76,0.76,0.76c0.42,0,0.76-0.34,0.76-0.76V6.37h4.27c2.93,0,5.32,2.39,5.32,5.32V25.63z M27.79,20.72
		v-6.67h1.69v6.67H27.79z"/>
	<path class="st0" d="M18.9,13.53c-0.3-0.3-0.78-0.3-1.08,0c-0.3,0.3-0.3,0.78,0,1.08c0.25,0.24,0.44,0.53,0.58,0.86
		c0.14,0.33,0.21,0.68,0.21,1.05c0,0.37-0.07,0.72-0.21,1.05c-0.13,0.32-0.33,0.61-0.58,0.86c-0.24,0.25-0.53,0.44-0.85,0.57
		c-0.67,0.29-1.43,0.29-2.1,0c-0.32-0.13-0.61-0.33-0.85-0.58c-0.25-0.25-0.44-0.53-0.58-0.86c-0.14-0.33-0.21-0.68-0.21-1.05
		s0.07-0.72,0.21-1.05c0.14-0.32,0.33-0.61,0.58-0.85c0.3-0.3,0.3-0.78,0-1.08c-0.3-0.3-0.78-0.3-1.07,0
		c-0.39,0.39-0.69,0.84-0.9,1.34c-0.22,0.52-0.33,1.07-0.33,1.64c0,0.57,0.11,1.12,0.33,1.64c0.21,0.5,0.52,0.95,0.9,1.34
		c0.39,0.39,0.84,0.7,1.34,0.91c0.52,0.22,1.07,0.33,1.64,0.33c0.57,0,1.12-0.11,1.64-0.33c0.5-0.21,0.95-0.51,1.34-0.9
		c0.39-0.39,0.69-0.83,0.9-1.34c0.22-0.52,0.33-1.07,0.33-1.64c0-0.57-0.11-1.12-0.33-1.64C19.59,14.36,19.29,13.91,18.9,13.53z"/>
	<path class="st0" d="M15.92,17.27c0.42,0,0.76-0.34,0.76-0.76v-4.46c0-0.42-0.34-0.76-0.76-0.76c-0.42,0-0.76,0.34-0.76,0.76v4.46
		C15.16,16.92,15.5,17.27,15.92,17.27z"/>
</g>
</svg>
