<?xml version="1.0" encoding="utf-8"?>
<!-- Generator: Adobe Illustrator 23.0.1, SVG Export Plug-In . SVG Version: 6.00 Build 0)  -->
<svg version="1.1" id="Layer_1" xmlns="http://www.w3.org/2000/svg" xmlns:xlink="http://www.w3.org/1999/xlink" x="0px" y="0px"
	 viewBox="0 0 32 32" style="enable-background:new 0 0 32 32;" xml:space="preserve">
<style type="text/css">
	.st0{fill:#707070;}
</style>
<g>
	<g>
		<path class="st0" d="M26.8,16.91h-0.9V15.7c0-5.46-4.44-9.9-9.9-9.9s-9.9,4.44-9.9,9.9v1.22H5.2V15.7c0-5.96,4.85-10.8,10.8-10.8
			s10.8,4.85,10.8,10.8V16.91z"/>
		<path class="st0" d="M7.47,27.11C4.46,27.11,2,24.65,2,21.63s2.46-5.47,5.47-5.47l0.45,0.45v10.05L7.47,27.11z M7.02,17.08
			c-2.31,0.23-4.12,2.18-4.12,4.55s1.81,4.32,4.12,4.55V17.08z"/>
		<path class="st0" d="M24.53,27.11l-0.45-0.45V16.61l0.45-0.45c3.02,0,5.47,2.46,5.47,5.47S27.54,27.11,24.53,27.11z M24.98,17.08
			v9.1c2.31-0.23,4.12-2.18,4.12-4.55S27.29,17.31,24.98,17.08z"/>
	</g>
	<path class="st0" d="M16.8,20.91h-0.9v-8.5l0.62-0.42c1.92,0.78,3.02,1.82,3.26,3.09c0.35,1.82-1.22,3.36-1.29,3.42l-0.63-0.65
		c0.01-0.01,1.29-1.27,1.03-2.61c-0.16-0.82-0.86-1.54-2.1-2.14V20.91z"/>
	<path class="st0" d="M13.91,23.12c-1.59,0-2.89-0.99-2.89-2.2c0-1.22,1.3-2.2,2.89-2.2s2.89,0.99,2.89,2.2
		C16.8,22.13,15.5,23.12,13.91,23.12z M13.91,19.61c-1.08,0-1.99,0.6-1.99,1.3c0,0.71,0.91,1.3,1.99,1.3s1.99-0.6,1.99-1.3
		C15.9,20.21,14.99,19.61,13.91,19.61z"/>
</g>
</svg>
