<?xml version="1.0" encoding="utf-8"?>
<!-- Generator: Adobe Illustrator 23.0.1, SVG Export Plug-In . SVG Version: 6.00 Build 0)  -->
<svg version="1.1" id="Layer_1" xmlns="http://www.w3.org/2000/svg" xmlns:xlink="http://www.w3.org/1999/xlink" x="0px" y="0px"
	 viewBox="0 0 32 32" style="enable-background:new 0 0 32 32;" xml:space="preserve">
<style type="text/css">
	.st0{fill:#707070;}
</style>
<g>
	<path class="st0" d="M26.62,1.3H5.38C4.62,1.3,4,1.92,4,2.68v26.64c0,0.76,0.62,1.38,1.38,1.38h21.24c0.76,0,1.38-0.62,1.38-1.38
		V2.68C28,1.92,27.38,1.3,26.62,1.3z M26.47,29.17H5.53V2.83h20.93V29.17z"/>
	<path class="st0" d="M23.31,9.48H8.69c-0.76,0-1.38,0.62-1.38,1.38v14.62c0,0.76,0.62,1.38,1.38,1.38h14.62
		c0.76,0,1.38-0.62,1.38-1.38V10.86C24.69,10.1,24.07,9.48,23.31,9.48z M23.16,25.33H8.84V11.02h14.32V25.33z"/>
	<path class="st0" d="M16.73,23.92c0.07,0.02,0.14,0.03,0.2,0.03c0.34,0,0.65-0.22,0.74-0.56l0.35-1.26l2.12,0.07l1.55-5.65
		l0.13-0.67L20,14.9l0.42-1.53c0.11-0.41-0.13-0.83-0.54-0.94c-0.42-0.1-0.83,0.13-0.94,0.54l-2.75,10.01
		C16.08,23.39,16.32,23.81,16.73,23.92z M20.06,16.68l-1.08,3.96l-0.55-0.02l1.15-4.19L20.06,16.68z"/>
	<path class="st0" d="M10.74,23.92c0.07,0.02,0.14,0.03,0.2,0.03c0.34,0,0.65-0.22,0.74-0.56l0.35-1.26l2.12,0.07l1.55-5.65
		l0.13-0.67l-1.82-0.97l0.42-1.53c0.11-0.41-0.13-0.83-0.54-0.94c-0.42-0.1-0.83,0.13-0.94,0.54l-2.75,10.01
		C10.09,23.39,10.33,23.81,10.74,23.92z M14.08,16.68l-1.09,3.96l-0.54-0.02l1.15-4.19L14.08,16.68z"/>
	<path class="st0" d="M9.35,8.45c1.14,0,2.07-0.93,2.07-2.07s-0.93-2.07-2.07-2.07S7.28,5.24,7.28,6.38S8.21,8.45,9.35,8.45z
		 M9.35,5.85c0.29,0,0.53,0.24,0.53,0.53c0,0.29-0.24,0.53-0.53,0.53c-0.29,0-0.53-0.24-0.53-0.53C8.81,6.09,9.05,5.85,9.35,5.85z"
		/>
	<path class="st0" d="M17.66,6.59h5.93c0.42,0,0.77-0.34,0.77-0.77s-0.34-0.77-0.77-0.77h-5.93c-0.42,0-0.77,0.34-0.77,0.77
		S17.24,6.59,17.66,6.59z"/>
</g>
</svg>
