<?xml version="1.0" encoding="utf-8"?>
<!-- Generator: Adobe Illustrator 23.0.1, SVG Export Plug-In . SVG Version: 6.00 Build 0)  -->
<svg version="1.1" id="Layer_1" xmlns="http://www.w3.org/2000/svg" xmlns:xlink="http://www.w3.org/1999/xlink" x="0px" y="0px"
	 viewBox="0 0 32 32" style="enable-background:new 0 0 32 32;" xml:space="preserve">
<style type="text/css">
	.st0{fill:#707070;}
</style>
<path class="st0" d="M30.73,14.53L17.16,3.78c-0.53-0.42-1.28-0.43-1.82-0.02L8.37,9.1V8.02h0.46c0.4,0,0.72-0.32,0.72-0.72
	S9.23,6.58,8.83,6.58H6.47c-0.4,0-0.72,0.32-0.72,0.72s0.32,0.72,0.72,0.72h0.46v2.18l-5.65,4.33c-0.32,0.24-0.38,0.69-0.13,1.01
	c0.14,0.18,0.36,0.28,0.57,0.28c0.15,0,0.31-0.05,0.44-0.15l0.62-0.47c0.05,0.01,0.08,0.05,0.12,0.05l2.74,13.3h20.72l2.77-13.44
	l0.7,0.56c0.31,0.24,0.76,0.2,1.01-0.12C31.09,15.23,31.04,14.78,30.73,14.53z M11.8,20.48v0.04H5.46l-0.4-1.92h7.2
	C11.98,19.17,11.8,19.8,11.8,20.48z M5.75,21.96h6.05v1.92H6.15L5.75,21.96z M13.24,20.48c0-1.52,1.24-2.76,2.76-2.76
	c1.52,0,2.76,1.24,2.76,2.76v6.63h-5.52V20.48z M19.74,18.6h7.2l-0.4,1.92H20.2v-0.04C20.2,19.8,20.03,19.17,19.74,18.6z
	 M20.2,21.96h6.04l-0.39,1.92H20.2V21.96z M27.24,17.17h-8.68c-0.71-0.55-1.59-0.89-2.55-0.89c-1,0-1.91,0.37-2.64,0.96
	c-0.06-0.02-0.1-0.07-0.17-0.07H4.77l-0.39-1.92h23.26L27.24,17.17z M7.1,11.89h17.98l2.42,1.92H4.59L7.1,11.89z M11.5,8.54h9.35
	l2.42,1.92H8.99L11.5,8.54z M16.27,4.9l2.77,2.2h-5.65L16.27,4.9z M6.44,25.32h5.36v1.79H6.81L6.44,25.32z M20.2,27.11v-1.79h5.35
	l-0.37,1.79H20.2z"/>
</svg>
