<?xml version="1.0" encoding="utf-8"?>
<!-- Generator: Adobe Illustrator 23.0.1, SVG Export Plug-In . SVG Version: 6.00 Build 0)  -->
<svg version="1.1" id="Layer_1" xmlns="http://www.w3.org/2000/svg" xmlns:xlink="http://www.w3.org/1999/xlink" x="0px" y="0px"
	 viewBox="0 0 32 32" style="enable-background:new 0 0 32 32;" xml:space="preserve">
<style type="text/css">
	.st0{fill:#707070;}
</style>
<g>
	<path class="st0" d="M24.84,18.62c0-0.02,0.02-0.03,0.01-0.04c-0.23-3.1-2.85-5.52-5.97-5.52h-5.77c-3.12,0-5.75,2.43-5.97,5.53
		c0,0.02,0.01,0.03,0.01,0.04c-1,0.39-1.71,1.35-1.71,2.48v2.73c0,1.13,0.71,2.09,1.7,2.48v2.02c0,0.62,0.51,1.13,1.13,1.13h1.98
		c0.62,0,1.13-0.5,1.13-1.13v-1.83h9.24v1.83c0,0.62,0.5,1.13,1.13,1.13h1.98c0.62,0,1.13-0.5,1.13-1.13v-2.02
		c0.99-0.39,1.7-1.35,1.7-2.48V21.1C26.56,19.97,25.84,19.01,24.84,18.62z M13.12,14.31h5.77c2.38,0,4.38,1.79,4.68,4.12h-1.02
		c-0.3-1.49-1.56-2.64-3.14-2.64c-1.58,0-2.83,1.15-3.14,2.64H8.44C8.73,16.1,10.73,14.31,13.12,14.31z M21.29,18.43h-3.76
		c0.27-0.8,0.99-1.38,1.88-1.38S21.03,17.63,21.29,18.43z M10.13,28.21H8.4v-1.7h1.73V28.21z M21.87,28.21v-1.7h1.73v1.7H21.87z
		 M25.3,23.84c0,0.78-0.64,1.42-1.42,1.42h-2.62c-0.01,0-0.01-0.01-0.02-0.01c-0.01,0-0.01,0.01-0.02,0.01H10.77
		c-0.01,0-0.01-0.01-0.02-0.01s-0.01,0.01-0.02,0.01H8.12c-0.78,0-1.42-0.64-1.42-1.42V21.1c0-0.78,0.64-1.42,1.42-1.42h15.76
		c0.78,0,1.42,0.64,1.42,1.42V23.84z"/>
	<path class="st0" d="M19.41,22.42H12.9c-0.35,0-0.63,0.28-0.63,0.63s0.28,0.63,0.63,0.63h6.51c0.35,0,0.63-0.28,0.63-0.63
		S19.76,22.42,19.41,22.42z"/>
	<path class="st0" d="M27.86,2.54H4.14C2.41,2.54,1,3.94,1,5.67v23.17c0,0.35,0.28,0.63,0.63,0.63s0.63-0.28,0.63-0.63V11.36h27.49
		v17.48c0,0.35,0.28,0.63,0.63,0.63S31,29.18,31,28.84V5.67C31,3.94,29.59,2.54,27.86,2.54z M4.14,3.79h23.73
		c1.04,0,1.88,0.84,1.88,1.88v0.54H2.25V5.67C2.25,4.63,3.1,3.79,4.14,3.79z M2.25,10.1V7.47h27.49v2.64H2.25z"/>
</g>
</svg>
