<?xml version="1.0" encoding="utf-8"?>
<!-- Generator: Adobe Illustrator 23.0.1, SVG Export Plug-In . SVG Version: 6.00 Build 0)  -->
<svg version="1.1" id="Layer_1" xmlns="http://www.w3.org/2000/svg" xmlns:xlink="http://www.w3.org/1999/xlink" x="0px" y="0px"
	 viewBox="0 0 32 32" style="enable-background:new 0 0 32 32;" xml:space="preserve">
<style type="text/css">
	.st0{fill:#707070;}
</style>
<g>
	<path class="st0" d="M16,16.59c-2.18,0-4.22,0.85-5.73,2.39c-0.27,0.28-0.26,0.72,0.01,0.99c0.28,0.27,0.72,0.26,0.99-0.01
		c1.25-1.27,2.93-1.97,4.73-1.97s3.48,0.7,4.73,1.97c0.14,0.14,0.32,0.21,0.5,0.21c0.18,0,0.35-0.07,0.49-0.2
		c0.28-0.27,0.28-0.71,0.01-0.99C20.21,17.43,18.18,16.59,16,16.59z"/>
	<path class="st0" d="M16,10c-3.91,0-7.59,1.52-10.36,4.29c-0.15,0.13-0.26,0.3-0.26,0.51c0,0.38,0.31,0.7,0.7,0.7h0.03
		c0.18,0,0.36-0.07,0.49-0.2c2.51-2.51,5.85-3.9,9.4-3.9s6.89,1.38,9.4,3.9c0.14,0.14,0.31,0.2,0.49,0.2c0.18,0,0.36-0.07,0.49-0.2
		c0.27-0.27,0.27-0.71,0-0.99C23.61,11.53,19.92,10,16,10z"/>
	<path class="st0" d="M30.8,9.9C26.85,5.95,21.59,3.77,16,3.77S5.15,5.95,1.2,9.9c-0.27,0.27-0.27,0.71,0,0.99
		c0.27,0.27,0.71,0.27,0.99,0C5.88,7.2,10.78,5.17,16,5.17c5.22,0,10.12,2.03,13.81,5.72c0.14,0.14,0.31,0.2,0.49,0.2
		c0.18,0,0.36-0.07,0.49-0.2C31.07,10.61,31.07,10.17,30.8,9.9z"/>
	<path class="st0" d="M16,21.16c-1.95,0-3.54,1.58-3.54,3.54s1.58,3.54,3.54,3.54s3.54-1.58,3.54-3.54S17.95,21.16,16,21.16z
		 M16,26.83c-1.18,0-2.14-0.96-2.14-2.14c0-1.18,0.96-2.14,2.14-2.14c1.18,0,2.14,0.96,2.14,2.14C18.14,25.87,17.18,26.83,16,26.83z
		"/>
</g>
</svg>
