<?xml version="1.0" encoding="utf-8"?>
<!-- Generator: Adobe Illustrator 23.0.1, SVG Export Plug-In . SVG Version: 6.00 Build 0)  -->
<svg version="1.1" id="Layer_1" xmlns="http://www.w3.org/2000/svg" xmlns:xlink="http://www.w3.org/1999/xlink" x="0px" y="0px"
	 viewBox="0 0 32 32" style="enable-background:new 0 0 32 32;" xml:space="preserve">
<style type="text/css">
	.st0{fill:#707070;}
</style>
<g>
	<path class="st0" d="M22.45,24.85H9.55c-3.86,0-7-3.14-7-7v-1.33c0-0.25,0.21-0.46,0.46-0.46s0.46,0.21,0.46,0.46v1.33
		c0,3.35,2.73,6.08,6.08,6.08h12.9c3.35,0,6.08-2.73,6.08-6.08v-1.33c0-0.25,0.21-0.46,0.46-0.46s0.46,0.21,0.46,0.46v1.33
		C29.45,21.71,26.31,24.85,22.45,24.85z"/>
	<path class="st0" d="M29.64,16.99H14.42c-0.25,0-0.46-0.21-0.46-0.46s0.21-0.46,0.46-0.46h15.22l0.01-1.64L2.36,14.41l-0.01,1.64
		l3.86,0.01c0.25,0,0.46,0.21,0.46,0.46s-0.21,0.46-0.46,0.46H2.36c-0.51,0-0.93-0.42-0.93-0.93v-1.64c0-0.51,0.42-0.93,0.93-0.93
		h27.28c0.51,0,0.93,0.42,0.93,0.93v1.64C30.57,16.57,30.15,16.99,29.64,16.99z"/>
	<path class="st0" d="M28.69,14.42c-0.25,0-0.46-0.21-0.46-0.46V4.49c0-0.73-0.59-1.32-1.32-1.32H26.3c-0.73,0-1.32,0.59-1.32,1.32
		v1c0,0.25-0.21,0.46-0.46,0.46s-0.46-0.21-0.46-0.46v-1c0-1.24,1.01-2.24,2.24-2.24h0.61c1.24,0,2.24,1.01,2.24,2.24v9.47
		C29.15,14.21,28.95,14.42,28.69,14.42z"/>
	<path class="st0" d="M26.89,8.09h-4.74V7.63c0-1.31,1.06-2.37,2.37-2.37c1.31,0,2.37,1.06,2.37,2.37V8.09z M23.15,7.17h2.75
		c-0.19-0.57-0.74-0.99-1.37-0.99C23.88,6.18,23.34,6.6,23.15,7.17z"/>
	<path class="st0" d="M10.23,29.75c-1.19,0-2.16-0.97-2.16-2.16v-3.21c0-0.25,0.21-0.46,0.46-0.46s0.46,0.21,0.46,0.46v3.21
		c0,0.68,0.55,1.23,1.24,1.23c0.68,0,1.23-0.55,1.23-1.23v-3.21c0-0.25,0.21-0.46,0.46-0.46s0.46,0.21,0.46,0.46v3.21
		C12.38,28.79,11.42,29.75,10.23,29.75z"/>
	<path class="st0" d="M20.92,29.75c-1.19,0-2.16-0.97-2.16-2.16v-3.21c0-0.25,0.21-0.46,0.46-0.46c0.25,0,0.46,0.21,0.46,0.46v3.21
		c0,0.68,0.55,1.23,1.23,1.23s1.23-0.55,1.23-1.23v-3.21c0-0.25,0.21-0.46,0.46-0.46s0.46,0.21,0.46,0.46v3.21
		C23.07,28.79,22.1,29.75,20.92,29.75z"/>
	<path class="st0" d="M22.77,11.73c-0.25,0-0.46-0.21-0.46-0.46V9.83c0-0.25,0.21-0.46,0.46-0.46s0.46,0.21,0.46,0.46v1.44
		C23.23,11.53,23.02,11.73,22.77,11.73z"/>
	<path class="st0" d="M24.52,11.73c-0.25,0-0.46-0.21-0.46-0.46V9.83c0-0.25,0.21-0.46,0.46-0.46s0.46,0.21,0.46,0.46v1.44
		C24.98,11.53,24.77,11.73,24.52,11.73z"/>
	<path class="st0" d="M26.43,11.73c-0.25,0-0.46-0.21-0.46-0.46V9.83c0-0.25,0.21-0.46,0.46-0.46s0.46,0.21,0.46,0.46v1.44
		C26.89,11.53,26.68,11.73,26.43,11.73z"/>
	<path class="st0" d="M12.55,21.43H8.09c-1.28,0-2.33-1.05-2.33-2.33v-5.14c0-0.25,0.21-0.46,0.46-0.46s0.46,0.21,0.46,0.46v5.14
		c0,0.78,0.63,1.41,1.41,1.41h4.46c0.78,0,1.41-0.63,1.41-1.41v-5.14c0-0.25,0.21-0.46,0.46-0.46c0.25,0,0.46,0.21,0.46,0.46v5.14
		C14.88,20.38,13.84,21.43,12.55,21.43z"/>
</g>
</svg>
