<?xml version="1.0" encoding="utf-8"?>
<!-- Generator: Adobe Illustrator 23.0.1, SVG Export Plug-In . SVG Version: 6.00 Build 0)  -->
<svg version="1.1" id="Layer_1" xmlns="http://www.w3.org/2000/svg" xmlns:xlink="http://www.w3.org/1999/xlink" x="0px" y="0px"
	 viewBox="0 0 32 32" style="enable-background:new 0 0 32 32;" xml:space="preserve">
<style type="text/css">
	.st0{fill:#707070;}
</style>
<g>
	<path class="st0" d="M28.5,26.94c-0.56,0-1.12-0.25-1.49-0.73c-0.55-0.71-0.49-2.7-0.48-3.09l0.02-0.57l0.56,0.12
		c0.38,0.09,2.32,0.55,2.86,1.26l0,0c0.63,0.82,0.47,1.99-0.34,2.62C29.29,26.81,28.89,26.94,28.5,26.94z M27.48,23.75
		c0.01,0.82,0.11,1.65,0.29,1.88c0.31,0.4,0.89,0.48,1.29,0.17c0.4-0.31,0.48-0.89,0.17-1.29l0,0
		C29.05,24.28,28.27,23.97,27.48,23.75z"/>
	<path class="st0" d="M15.26,25.83c-0.34,0-0.68-0.09-0.97-0.28c-0.43-0.26-0.72-0.67-0.84-1.16c-0.12-0.49-0.04-0.99,0.22-1.41
		c0.47-0.76,2.34-1.43,2.71-1.55l0.54-0.18l0.08,0.56c0.06,0.39,0.32,2.36-0.15,3.12l0,0c-0.26,0.43-0.67,0.73-1.16,0.84
		C15.55,25.82,15.41,25.83,15.26,25.83z M16.13,22.54c-0.76,0.3-1.5,0.69-1.65,0.94c-0.13,0.21-0.17,0.45-0.11,0.69
		c0.06,0.24,0.2,0.44,0.41,0.57c0.21,0.13,0.46,0.17,0.69,0.11c0.24-0.06,0.44-0.2,0.57-0.41v0C16.2,24.19,16.21,23.35,16.13,22.54z
		"/>
	<path class="st0" d="M24.72,20.85h-6.01v-2.58c0-1.89-1.54-3.43-3.43-3.43H1.64V9.52h14.8c4.57,0,8.28,3.71,8.28,8.28V20.85z
		 M19.66,19.89h4.11v-2.1c0-4.04-3.29-7.33-7.33-7.33H2.59v3.42h12.69c2.41,0,4.38,1.96,4.38,4.38V19.89z"/>
	<path class="st0" d="M18.75,29.42c-0.02,0-0.03,0-0.05,0c-0.26-0.03-0.45-0.26-0.42-0.53l0.94-8.58c0.03-0.26,0.24-0.46,0.52-0.42
		c0.26,0.03,0.45,0.26,0.42,0.53L19.23,29C19.2,29.24,18.99,29.42,18.75,29.42z"/>
	<path class="st0" d="M24.71,29.42c-0.24,0-0.45-0.18-0.47-0.42l-0.94-8.58c-0.03-0.26,0.16-0.5,0.42-0.53
		c0.28-0.04,0.5,0.16,0.52,0.42l0.94,8.58c0.03,0.26-0.16,0.5-0.42,0.53C24.75,29.42,24.73,29.42,24.71,29.42z"/>
	<path class="st0" d="M22.7,29.42c-0.25,0-0.46-0.2-0.48-0.45l-0.38-8.58c-0.01-0.26,0.19-0.49,0.46-0.5c0.01,0,0.01,0,0.02,0
		c0.25,0,0.46,0.2,0.48,0.45l0.38,8.58c0.01,0.26-0.19,0.49-0.46,0.5C22.72,29.42,22.71,29.42,22.7,29.42z"/>
	<path class="st0" d="M20.67,29.42c-0.01,0-0.01,0-0.02,0c-0.26-0.01-0.47-0.23-0.46-0.5l0.38-8.58c0.01-0.26,0.22-0.45,0.48-0.45
		c0.01,0,0.01,0,0.02,0c0.26,0.01,0.47,0.23,0.46,0.5l-0.38,8.58C21.13,29.22,20.92,29.42,20.67,29.42z"/>
	<path class="st0" d="M10.95,10.47c-0.26,0-0.48-0.21-0.48-0.48V9.23c0-0.45-0.37-0.82-0.82-0.82H6.39c-0.46,0-0.83,0.37-0.83,0.82
		v0.76c0,0.26-0.21,0.48-0.48,0.48c-0.26,0-0.48-0.21-0.48-0.48V9.23c0-0.98,0.8-1.78,1.78-1.78h3.26c0.98,0,1.78,0.8,1.78,1.78
		v0.76C11.42,10.25,11.21,10.47,10.95,10.47z"/>
	<path class="st0" d="M11.6,6.8H4.44c-0.94,0-1.7-0.76-1.7-1.7V4.28c0-0.94,0.76-1.7,1.7-1.7h7.17c0.94,0,1.7,0.76,1.7,1.7V5.1
		C13.31,6.04,12.54,6.8,11.6,6.8z M4.44,3.53c-0.41,0-0.75,0.34-0.75,0.75V5.1c0,0.41,0.34,0.75,0.75,0.75h7.17
		c0.41,0,0.75-0.34,0.75-0.75V4.28c0-0.41-0.34-0.75-0.75-0.75H4.44z"/>
	<path class="st0" d="M10.2,6.8c-0.1,0-0.2-0.03-0.29-0.1C9.7,6.54,9.66,6.24,9.82,6.03c0.28-0.37,0.44-0.84,0.44-1.34
		c0-0.5-0.15-0.97-0.45-1.35C9.65,3.14,9.69,2.84,9.89,2.68c0.21-0.16,0.51-0.12,0.67,0.09c0.42,0.55,0.64,1.22,0.64,1.93
		c0,0.7-0.22,1.38-0.63,1.91C10.48,6.73,10.34,6.8,10.2,6.8z"/>
	<path class="st0" d="M5.85,6.8c-0.14,0-0.28-0.06-0.38-0.19C5.06,6.07,4.83,5.39,4.83,4.69c0-0.7,0.23-1.37,0.66-1.93
		c0.16-0.21,0.46-0.25,0.67-0.09C6.36,2.84,6.4,3.14,6.24,3.35C5.94,3.74,5.78,4.2,5.78,4.69c0,0.48,0.16,0.96,0.45,1.34
		C6.39,6.24,6.35,6.54,6.14,6.7C6.06,6.77,5.95,6.8,5.85,6.8z"/>
	<path class="st0" d="M7,8.41c-0.26,0-0.48-0.21-0.48-0.48V6.32c0-0.26,0.21-0.48,0.48-0.48s0.48,0.21,0.48,0.48v1.61
		C7.47,8.19,7.26,8.41,7,8.41z"/>
	<path class="st0" d="M9.06,8.41c-0.26,0-0.48-0.21-0.48-0.48V6.32c0-0.26,0.21-0.48,0.48-0.48c0.26,0,0.48,0.21,0.48,0.48v1.61
		C9.53,8.19,9.32,8.41,9.06,8.41z"/>
	<path class="st0" d="M6.08,14.84c-0.26,0-0.48-0.21-0.48-0.48V9.99c0-0.26,0.21-0.48,0.48-0.48c0.26,0,0.48,0.21,0.48,0.48v4.37
		C6.56,14.63,6.34,14.84,6.08,14.84z"/>
	<path class="st0" d="M9.94,14.84c-0.26,0-0.48-0.21-0.48-0.48V9.99c0-0.26,0.21-0.48,0.48-0.48c0.26,0,0.48,0.21,0.48,0.48v4.37
		C10.42,14.63,10.2,14.84,9.94,14.84z"/>
	<path class="st0" d="M20.19,15.66c-0.2,0-0.38-0.12-0.45-0.32c-0.52-1.51-2.39-1.79-2.41-1.79c-0.26-0.04-0.44-0.28-0.41-0.54
		c0.04-0.26,0.27-0.45,0.54-0.41c0.1,0.01,2.47,0.36,3.18,2.43c0.09,0.25-0.05,0.52-0.3,0.6C20.29,15.65,20.24,15.66,20.19,15.66z"
		/>
</g>
</svg>
