<?xml version="1.0" encoding="utf-8"?>
<!-- Generator: Adobe Illustrator 23.0.1, SVG Export Plug-In . SVG Version: 6.00 Build 0)  -->
<svg version="1.1" id="Layer_1" xmlns="http://www.w3.org/2000/svg" xmlns:xlink="http://www.w3.org/1999/xlink" x="0px" y="0px"
	 viewBox="0 0 32 32" style="enable-background:new 0 0 32 32;" xml:space="preserve">
<style type="text/css">
	.st0{fill:#707070;}
</style>
<g>
	<g>
		<path class="st0" d="M19.81,29.73h-7.78c-0.87,0-1.57-0.71-1.57-1.57V10.41c0-0.7,0.46-1.32,1.11-1.51c2.88-0.85,5.81-0.85,8.7,0
			c0.66,0.19,1.11,0.81,1.11,1.51v17.74C21.38,29.03,20.67,29.73,19.81,29.73z M15.91,9.23c-1.36,0-2.72,0.2-4.08,0.6
			c-0.25,0.07-0.42,0.32-0.42,0.59v17.74c0,0.34,0.27,0.61,0.61,0.61h7.78c0.34,0,0.61-0.27,0.61-0.61V10.41
			c0-0.27-0.17-0.52-0.42-0.59C18.64,9.43,17.28,9.23,15.91,9.23z"/>
		<path class="st0" d="M18.2,17.17l-0.15-0.02c-1.42-0.47-2.85-0.47-4.27,0l-0.15,0.02c-0.33,0-0.61-0.21-0.72-0.52L12,13.87
			c-0.08-0.23-0.03-0.48,0.11-0.68c0.13-0.17,0.32-0.29,0.53-0.31c2.17-0.56,4.37-0.56,6.55,0c0.21,0.02,0.41,0.13,0.53,0.31
			c0.14,0.2,0.18,0.45,0.11,0.68l-0.91,2.78C18.81,16.96,18.52,17.17,18.2,17.17z M15.91,15.83c0.72,0,1.44,0.11,2.16,0.32
			l0.77-2.35c-1.95-0.48-3.91-0.48-5.86,0l0.77,2.35C14.47,15.93,15.19,15.83,15.91,15.83z M19.06,13.84c0.02,0,0.03,0.01,0.05,0.01
			L19.06,13.84z M12.77,13.84l-0.05,0.01C12.73,13.84,12.75,13.84,12.77,13.84z"/>
		<path class="st0" d="M15.91,27.12c-1.09,0-2.19-0.14-3.27-0.42c-0.21-0.02-0.41-0.13-0.53-0.31c-0.14-0.2-0.18-0.45-0.11-0.68
			l0.91-2.78c0.1-0.31,0.39-0.52,0.71-0.52l0.15,0.02c1.41,0.47,2.85,0.47,4.27,0l0.15-0.02c0.33,0,0.61,0.21,0.72,0.52l0.91,2.78
			c0.08,0.23,0.03,0.48-0.11,0.68c-0.13,0.17-0.32,0.29-0.53,0.31C18.1,26.98,17.01,27.12,15.91,27.12z M12.98,25.8
			c1.94,0.48,3.91,0.48,5.86,0l-0.77-2.35c-1.43,0.42-2.88,0.42-4.31,0L12.98,25.8z M19.11,25.74c-0.02,0-0.04,0-0.05,0.01
			L19.11,25.74z M12.72,25.74l0.05,0.01C12.75,25.74,12.73,25.74,12.72,25.74z M13.83,23.24L13.83,23.24
			C13.83,23.24,13.83,23.24,13.83,23.24z"/>
		<path class="st0" d="M12.44,16.69c1.52,1.67,1.52,4.54,0,6.21c0.07-1.13,0.2-2.11,0.18-3.11C12.64,18.79,12.52,17.81,12.44,16.69z
			"/>
		<path class="st0" d="M19.29,16.69c-0.07,1.13-0.2,2.11-0.18,3.11c-0.01,1,0.11,1.98,0.18,3.11
			C17.77,21.23,17.77,18.36,19.29,16.69z"/>
		<path class="st0" d="M9.44,18.08c-0.13,0-0.27-0.06-0.36-0.16c-0.18-0.2-0.15-0.5,0.05-0.68l1.49-1.31
			c0.2-0.17,0.5-0.16,0.68,0.05c0.18,0.2,0.15,0.5-0.05,0.68l-1.49,1.31C9.66,18.04,9.55,18.08,9.44,18.08z"/>
		<path class="st0" d="M22.56,18.08c-0.11,0-0.23-0.04-0.32-0.12l-1.49-1.31c-0.2-0.17-0.22-0.48-0.05-0.68
			c0.17-0.2,0.48-0.22,0.68-0.05l1.49,1.31c0.2,0.17,0.22,0.48,0.05,0.68C22.83,18.03,22.7,18.08,22.56,18.08z"/>
	</g>
	<g>
		<g>
			<path class="st0" d="M6.12,29.73c-0.27,0-0.48-0.21-0.48-0.48V2.75c0-0.27,0.21-0.48,0.48-0.48S6.6,2.48,6.6,2.75v26.5
				C6.6,29.52,6.39,29.73,6.12,29.73z"/>
			<path class="st0" d="M25.88,29.73c-0.26,0-0.48-0.21-0.48-0.48V2.75c0-0.27,0.22-0.48,0.48-0.48s0.48,0.21,0.48,0.48v26.5
				C26.36,29.52,26.15,29.73,25.88,29.73z"/>
		</g>
		<path class="st0" d="M29.28,6.16H2.72c-0.27,0-0.48-0.21-0.48-0.48c0-0.27,0.21-0.48,0.48-0.48h26.56c0.26,0,0.48,0.21,0.48,0.48
			C29.76,5.94,29.55,6.16,29.28,6.16z"/>
	</g>
</g>
</svg>
