<?xml version="1.0" encoding="utf-8"?>
<!-- Generator: Adobe Illustrator 23.0.1, SVG Export Plug-In . SVG Version: 6.00 Build 0)  -->
<svg version="1.1" id="Layer_1" xmlns="http://www.w3.org/2000/svg" xmlns:xlink="http://www.w3.org/1999/xlink" x="0px" y="0px"
	 viewBox="0 0 32 32" style="enable-background:new 0 0 32 32;" xml:space="preserve">
<style type="text/css">
	.st0{fill:#707070;}
</style>
<g>
	<path class="st0" d="M28.12,27.58L30,23.3l0-0.49l-1.88-3.98l-0.53-0.34H4.44l-0.53,0.34L2,22.97v0.49l1.91,4.13l0.01,0.01
		c-0.03,0.07-0.08,0.12-0.08,0.2v2.47l0.59,0.59h23.16l0.59-0.59V27.8c0-0.07-0.05-0.13-0.08-0.19L28.12,27.58z M28.82,23.07
		l-1.62,3.69h-2.1l1-3.38v-0.33l-1-3.39h2.11L28.82,23.07z M20.82,26.76l0.55-3.45l-0.56-3.64h3.06l1.05,3.55l-1.05,3.55H20.82z
		 M16.6,26.76v-7.1h3.04l0.57,3.55l-0.57,3.55H16.6z M12.33,26.76l-0.57-3.55l0.57-3.55h3.1v7.1H12.33z M8.08,26.76l-1.05-3.55
		l1.05-3.55h3.06l-0.55,3.46l0.56,3.64H8.08z M3.18,23.21l1.64-3.55h2.04l-1,3.39v0.33l1,3.38H4.82L3.18,23.21z M5.01,29.68v-1.75
		h21.98v1.75H5.01z"/>
	<path class="st0" d="M7.91,17.34c0.32,0,0.59-0.26,0.59-0.59V7.81h6.97v8.94c0,0.32,0.26,0.59,0.59,0.59
		c0.32,0,0.59-0.26,0.59-0.59V7.81h6.83c0.04,0,0.07-0.03,0.1-0.04v8.99c0,0.32,0.26,0.59,0.59,0.59c0.32,0,0.59-0.26,0.59-0.59
		V1.73c0-0.32-0.26-0.59-0.59-0.59H7.91c-0.32,0-0.59,0.26-0.59,0.59v15.02C7.33,17.08,7.59,17.34,7.91,17.34z M23.57,6.68
		c-0.04-0.01-0.06-0.04-0.1-0.04h-6.83V2.32h6.94V6.68z M15.47,2.32v4.32H8.5V2.32H15.47z"/>
	<path class="st0" d="M11.99,13.26c-0.32,0-0.59,0.26-0.59,0.59s0.26,0.58,0.59,0.58h1.72c0.32,0,0.59-0.26,0.59-0.58
		s-0.26-0.59-0.59-0.59H11.99z"/>
	<path class="st0" d="M18.41,13.26c-0.32,0-0.59,0.26-0.59,0.59s0.26,0.58,0.59,0.58h1.72c0.32,0,0.59-0.26,0.59-0.58
		s-0.26-0.59-0.59-0.59H18.41z"/>
</g>
</svg>
