<?xml version="1.0" encoding="utf-8"?>
<!-- Generator: Adobe Illustrator 23.0.1, SVG Export Plug-In . SVG Version: 6.00 Build 0)  -->
<svg version="1.1" id="Layer_1" xmlns="http://www.w3.org/2000/svg" xmlns:xlink="http://www.w3.org/1999/xlink" x="0px" y="0px"
	 viewBox="0 0 32 32" style="enable-background:new 0 0 32 32;" xml:space="preserve">
<style type="text/css">
	.st0{fill:#707070;}
</style>
<g>
	<path class="st0" d="M26.58,22.57l-1.17-0.22c-0.01,0-0.01-0.01-0.01-0.02c-0.05-0.02-0.09,0-0.14-0.01l-2.14-0.4v-0.45
		c1.5-0.94,2.51-2.6,2.51-4.5v-1.45c1.79-0.99,2.83-2.38,2.83-3.91c0-2.9-3.58-5.17-8.15-5.17s-8.15,2.27-8.15,5.17
		c0,1.53,1.05,2.93,2.83,3.91v1.45c0,1.9,1.01,3.56,2.52,4.5v0.45l-3.49,0.66c-1.39,0.31-2.4,1.57-2.4,2.99v4.35
		c0,0.39,0.31,0.7,0.7,0.7c0.39,0,0.7-0.32,0.7-0.7v-4.35c0-0.77,0.55-1.45,1.27-1.62l1.1-0.21l2.68,5.2l1.57-1.99v2.96
		c0,0.39,0.32,0.7,0.7,0.7c0.39,0,0.7-0.32,0.7-0.7v-3.17l1.73,2.2l2.66-5.16l0.85,0.16c0.77,0.17,1.3,0.84,1.3,1.62v4.35
		c0,0.39,0.32,0.7,0.7,0.7s0.7-0.32,0.7-0.7v-4.35C29,24.12,28.01,22.89,26.58,22.57z M20.32,23.83l-1.42-1.6v-0.16
		c0.45,0.12,0.91,0.21,1.4,0.21c0.49,0,0.95-0.09,1.4-0.21v0.03L20.32,23.83z M16.37,12.99l0-1.17c0.03,0.12,0.01,0.18,0,0.18
		c0-0.01,0.47-0.72,3.93-0.72c3.12,0,3.81,0.58,3.92,0.7v1.01H16.37z M22.18,14.39l-0.19,0.55h-3.37l-0.19-0.55H22.18z M13.56,11.6
		c0-2.04,3.09-3.77,6.75-3.77s6.75,1.73,6.75,3.77c0,0.83-0.51,1.63-1.43,2.29v-1.88c0.02-0.19-0.01-0.54-0.3-0.91
		c-0.66-0.83-2.3-1.24-5.02-1.24s-4.37,0.4-5.02,1.24c-0.36,0.45-0.31,0.87-0.3,0.87c0,0,0,0,0,0v1.92
		C14.07,13.23,13.56,12.43,13.56,11.6z M16.39,16.97l-0.01-2.57h0.57l0.47,1.39l0.27,0.56h4.72l0.61-0.08l0.64-1.87h0.56v2.57
		c0,2.16-1.76,3.92-3.92,3.92S16.39,19.13,16.39,16.97z M16.84,23.47l1.1-0.21l1.49,1.68l-1.11,1.41L16.84,23.47z M22.54,26.36
		l-1.21-1.53l1.26-1.57L24,23.52L22.54,26.36z"/>
	<path class="st0" d="M19.6,4.27c0,0.39,0.32,0.7,0.7,0.7c0.39,0,0.7-0.31,0.7-0.7V1.38H7.04C4.81,1.38,3,3.2,3,5.42v24.49
		c0,0.39,0.31,0.7,0.7,0.7s0.7-0.32,0.7-0.7V5.42c0-1.45,1.18-2.63,2.63-2.63H19.6V4.27z"/>
</g>
</svg>
