<?xml version="1.0" encoding="utf-8"?>
<!-- Generator: Adobe Illustrator 23.0.1, SVG Export Plug-In . SVG Version: 6.00 Build 0)  -->
<svg version="1.1" id="Layer_1" xmlns="http://www.w3.org/2000/svg" xmlns:xlink="http://www.w3.org/1999/xlink" x="0px" y="0px"
	 viewBox="0 0 32 32" style="enable-background:new 0 0 32 32;" xml:space="preserve">
<style type="text/css">
	.st0{fill:#707070;}
</style>
<path class="st0" d="M30.18,27.19c-1.13,0.07-2.87-0.48-4.02-1.58c-0.23-0.23-0.44-0.48-0.65-0.74c-0.54-0.66-1.14-1.4-2.1-1.71
	c-0.41-0.13-0.85-0.13-1.29-0.08V7.54c0-1.51,1.23-2.74,2.74-2.74c0.45,0,0.81-0.36,0.81-0.81s-0.36-0.81-0.81-0.81
	c-2.41,0-4.36,1.96-4.36,4.36v3.44h-9.12V7.54c0-1.51,1.23-2.74,2.74-2.74c0.45,0,0.81-0.36,0.81-0.81s-0.36-0.81-0.81-0.81
	c-2.4,0-4.36,1.96-4.36,4.36v15.82c-0.04-0.01-0.06-0.03-0.1-0.03c-1.11-0.16-2.27,0.3-3.37,1.33c-0.26,0.24-0.5,0.5-0.74,0.75
	c-0.44,0.47-0.86,0.91-1.34,1.22c-0.64,0.41-1.21,0.55-2.34,0.55c-0.01,0-0.03,0-0.04,0h0C1.36,27.19,1,27.55,1,28
	c0,0.47,0.39,0.82,0.85,0.81c1.22,0,2.19-0.14,3.22-0.8c0.65-0.42,1.15-0.95,1.64-1.47c0.22-0.23,0.44-0.47,0.68-0.68
	c0.42-0.39,1.25-1.04,2.02-0.92c0.68,0.1,1.21,0.7,1.83,1.39c0.36,0.41,0.74,0.83,1.19,1.18c1.6,1.28,3.94,1.42,5.7,0.35
	c0.7-0.43,1.24-1,1.77-1.55c0.26-0.27,0.51-0.54,0.79-0.79c0.3-0.26,1.33-1.11,2.22-0.81c0.5,0.16,0.89,0.64,1.35,1.19
	c0.25,0.31,0.5,0.61,0.78,0.88c1.28,1.24,3.29,2.04,5.12,2.04C30.53,28.8,31,28.46,31,28C31,27.55,30.6,27.17,30.18,27.19z
	 M20.5,12.6V17h-9.12v-4.4H20.5z M19.61,24.32c-0.31,0.28-0.59,0.57-0.88,0.87c-0.47,0.5-0.92,0.97-1.44,1.28
	c-1.16,0.72-2.78,0.61-3.84-0.23c-0.36-0.29-0.67-0.64-0.99-1c-0.35-0.4-0.73-0.82-1.18-1.17c0.03-0.08,0.1-0.15,0.1-0.24v-5.22
	h9.12v5.03C20.2,23.84,19.9,24.06,19.61,24.32z"/>
</svg>
