<?xml version="1.0" encoding="utf-8"?>
<!-- Generator: Adobe Illustrator 23.0.1, SVG Export Plug-In . SVG Version: 6.00 Build 0)  -->
<svg version="1.1" id="Layer_1" xmlns="http://www.w3.org/2000/svg" xmlns:xlink="http://www.w3.org/1999/xlink" x="0px" y="0px"
	 viewBox="0 0 32 32" style="enable-background:new 0 0 32 32;" xml:space="preserve">
<style type="text/css">
	.st0{fill:#707070;}
</style>
<g>
	<path class="st0" d="M15.86,10.46l11.86,6.88l-11.86,7.62L3.97,17.33L15.86,10.46 M15.86,9.43l-13.6,7.87l13.6,8.71l13.57-8.71
		L15.86,9.43L15.86,9.43z"/>
	
		<rect x="15.82" y="10.01" transform="matrix(0.5219 -0.853 0.853 0.5219 -7.0026 22.1583)" class="st0" width="0.89" height="14.63"/>
	
		<rect x="8.68" y="16.95" transform="matrix(0.8459 -0.5333 0.5333 0.8459 -6.8163 11.1987)" class="st0" width="14.59" height="0.89"/>
	<path class="st0" d="M26.43,14.77l-0.38-1.12c-0.3-0.89-0.87-1.46-1.76-1.76l-1.06-0.36l1.01-0.47c0.84-0.39,1.44-0.99,1.82-1.82
		l0.46-0.98l0.37,1.02c0.32,0.88,0.9,1.46,1.77,1.77l1.08,0.39l-1.06,0.44c-0.86,0.36-1.44,0.95-1.8,1.8L26.43,14.77z M25.39,11.42
		c0.46,0.28,0.83,0.65,1.11,1.1c0.28-0.41,0.63-0.76,1.04-1.04c-0.45-0.29-0.82-0.66-1.1-1.11C26.15,10.78,25.8,11.13,25.39,11.42z"
		/>
	<path class="st0" d="M21.32,11.55l-0.38-1.12c-0.22-0.65-0.64-1.07-1.28-1.28L18.6,8.79l1.01-0.47c0.62-0.29,1.06-0.73,1.35-1.35
		l0.46-0.98l0.37,1.02c0.23,0.64,0.65,1.06,1.29,1.29l1.08,0.39L23.1,9.14c-0.63,0.26-1.06,0.69-1.32,1.32L21.32,11.55z M20.72,8.69
		c0.26,0.18,0.49,0.4,0.67,0.66c0.18-0.23,0.38-0.43,0.61-0.61c-0.26-0.19-0.48-0.41-0.67-0.67C21.15,8.3,20.95,8.51,20.72,8.69z"/>
</g>
</svg>
