<?xml version="1.0" encoding="utf-8"?>
<!-- Generator: Adobe Illustrator 23.0.1, SVG Export Plug-In . SVG Version: 6.00 Build 0)  -->
<svg version="1.1" id="Layer_1" xmlns="http://www.w3.org/2000/svg" xmlns:xlink="http://www.w3.org/1999/xlink" x="0px" y="0px"
	 viewBox="0 0 32 32" style="enable-background:new 0 0 32 32;" xml:space="preserve">
<style type="text/css">
	.st0{fill:#707070;}
</style>
<path class="st0" d="M30.45,14.91c0.3,0,0.55-0.25,0.55-0.55v-2.37c0-0.3-0.25-0.55-0.55-0.55h-2.02V8.67
	c0-0.13-0.04-0.25-0.12-0.35l-1.39-1.71c-0.21-0.26-0.64-0.26-0.85,0l-1.39,1.71c-0.08,0.1-0.12,0.22-0.12,0.35v2.77h-1.37V8.67
	c0-0.13-0.04-0.25-0.12-0.35l-1.39-1.71c-0.11-0.13-0.26-0.2-0.43-0.2s-0.32,0.08-0.43,0.2l-1.39,1.71
	c-0.08,0.1-0.12,0.22-0.12,0.35v2.77h-1.37V8.67c0-0.13-0.04-0.25-0.12-0.35l-1.39-1.71c-0.21-0.26-0.64-0.26-0.85,0l-1.39,1.71
	c-0.08,0.1-0.12,0.22-0.12,0.35v2.77h-1.37V8.67c0-0.13-0.04-0.25-0.12-0.35l-1.39-1.71c-0.21-0.26-0.65-0.26-0.85,0L8.94,8.32
	c-0.08,0.1-0.12,0.22-0.12,0.35v2.77H7.45V8.67c0-0.13-0.04-0.25-0.12-0.35L5.94,6.61c-0.1-0.13-0.26-0.2-0.43-0.2
	c-0.17,0-0.32,0.08-0.43,0.2L3.7,8.32c-0.08,0.1-0.12,0.22-0.12,0.35v2.77H1.55c-0.3,0-0.55,0.25-0.55,0.55v2.37
	c0,0.3,0.25,0.55,0.55,0.55h2.03v4.55H1.55c-0.3,0-0.55,0.25-0.55,0.55v2.37c0,0.3,0.25,0.55,0.55,0.55h2.03v2.11
	c0,0.3,0.25,0.55,0.55,0.55H6.9c0.3,0,0.55-0.25,0.55-0.55v-2.11h1.37v2.11c0,0.3,0.25,0.55,0.55,0.55h2.78
	c0.3,0,0.55-0.25,0.55-0.55v-2.11h1.37v2.11c0,0.3,0.25,0.55,0.55,0.55h2.78c0.3,0,0.55-0.25,0.55-0.55v-2.11h1.37v2.11
	c0,0.3,0.25,0.55,0.55,0.55h2.78c0.3,0,0.55-0.25,0.55-0.55v-2.11h1.37v2.11c0,0.3,0.25,0.55,0.55,0.55h2.78
	c0.3,0,0.55-0.25,0.55-0.55v-2.11h2.02c0.3,0,0.55-0.25,0.55-0.55v-2.37c0-0.3-0.25-0.55-0.55-0.55h-2.02v-4.55H30.45z M29.9,12.54
	v1.27h-1.47v-1.27H29.9z M23.18,14.91h1.37v4.55h-1.37V14.91z M24.55,12.54v1.27h-1.37v-1.27H24.55z M17.94,14.91h1.37v4.55h-1.37
	V14.91z M19.31,12.54v1.27h-1.37v-1.27H19.31z M12.69,14.91h1.37v4.55h-1.37V14.91z M14.06,12.54v1.27h-1.37v-1.27H14.06z
	 M7.45,14.91h1.37v4.55H7.45V14.91z M8.82,12.54v1.27H7.45v-1.27H8.82z M2.1,13.81v-1.27h1.48v1.27H2.1z M2.1,21.84v-1.27h1.48v1.27
	H2.1z M4.67,24.5V8.86l0.84-1.04l0.84,1.04v3.1c0,0.01-0.01,0.01-0.01,0.02S6.35,12,6.35,12.01v2.33c0,0.01-0.01,0.01-0.01,0.02
	c0,0.01,0.01,0.01,0.01,0.02v5.6c0,0.01-0.01,0.01-0.01,0.02c0,0.01,0.01,0.01,0.01,0.02v2.33c0,0.01-0.01,0.01-0.01,0.02
	c0,0.01,0.01,0.01,0.01,0.02v2.09H4.67z M7.45,21.84v-1.27h1.37v1.27H7.45z M9.92,24.5v-2.1c0,0,0.01-0.01,0.01-0.01
	c0-0.01-0.01-0.01-0.01-0.01v-2.35c0,0,0.01-0.01,0.01-0.01c0-0.01-0.01-0.01-0.01-0.01v-5.62c0,0,0.01-0.01,0.01-0.01
	c0-0.01-0.01-0.01-0.01-0.01V12c0-0.01,0.01-0.01,0.01-0.01s-0.01-0.01-0.01-0.01V8.86l0.84-1.04l0.84,1.04v3.12c0,0,0,0,0,0
	s0,0,0,0v2.37c0,0,0,0,0,0c0,0,0,0,0,0v5.64c0,0,0,0,0,0c0,0,0,0,0,0v2.37c0,0,0,0,0,0c0,0,0,0,0,0v2.11H9.92z M12.69,21.84v-1.27
	h1.37v1.27H12.69z M16.84,24.5h-1.68V8.86L16,7.83l0.84,1.03V24.5z M17.94,21.84v-1.27h1.37v1.27H17.94z M20.41,24.5v-2.1
	c0,0,0,0,0-0.01s0,0,0-0.01v-2.36c0,0,0,0,0-0.01c0,0,0,0,0-0.01v-5.64c0,0,0,0,0-0.01c0,0,0,0,0-0.01v-2.36c0,0,0,0,0-0.01
	s0,0,0-0.01V8.86l0.84-1.03l0.84,1.03v3.11c0,0,0,0.01,0,0.01s0,0.01,0,0.01v2.35c0,0,0,0.01,0,0.01c0,0,0,0.01,0,0.01V20
	c0,0,0,0.01,0,0.01c0,0,0,0.01,0,0.01v2.35c0,0,0,0.01,0,0.01s0,0.01,0,0.01v2.1H20.41z M23.18,21.84v-1.27h1.37v1.27H23.18z
	 M27.33,24.5h-1.68v-2.08c0-0.01,0.01-0.02,0.01-0.03s-0.01-0.02-0.01-0.03v-2.32c0-0.01,0.01-0.02,0.01-0.03
	c0-0.01-0.01-0.02-0.01-0.03v-5.6c0-0.01,0.01-0.02,0.01-0.03c0-0.01-0.01-0.02-0.01-0.03v-2.32c0-0.01,0.01-0.02,0.01-0.03
	s-0.01-0.02-0.01-0.03v-3.1l0.84-1.04l0.84,1.04V24.5z M29.9,20.56v1.27h-1.47v-1.27H29.9z"/>
</svg>
