<?xml version="1.0" encoding="utf-8"?>
<!-- Generator: Adobe Illustrator 23.0.1, SVG Export Plug-In . SVG Version: 6.00 Build 0)  -->
<svg version="1.1" id="Layer_1" xmlns="http://www.w3.org/2000/svg" xmlns:xlink="http://www.w3.org/1999/xlink" x="0px" y="0px"
	 viewBox="0 0 32 32" style="enable-background:new 0 0 32 32;" xml:space="preserve">
<style type="text/css">
	.st0{fill:#707070;}
</style>
<g>
	<path class="st0" d="M16,7.13l-0.45,0.54c-0.34,0.41-2.04,2.49-2.04,3.69c0,1.37,1.12,2.49,2.49,2.49s2.48-1.11,2.48-2.49
		c0-1.2-1.7-3.29-2.03-3.69L16,7.13z M16,12.67c-0.72,0-1.31-0.59-1.31-1.31c0-0.42,0.62-1.46,1.31-2.37
		c0.69,0.92,1.31,1.95,1.31,2.37C17.31,12.08,16.72,12.67,16,12.67z"/>
	<path class="st0" d="M30.41,15.91h-2.29V4.54c0-0.32-0.26-0.59-0.59-0.59H12.42V3.48h1.12c0.32,0,0.59-0.26,0.59-0.59
		S13.86,2.3,13.54,2.3H6.38c-0.32,0-0.59,0.26-0.59,0.59s0.26,0.59,0.59,0.59h1v0.47H4.47c-0.32,0-0.59,0.26-0.59,0.59v11.37H1.59
		C1.26,15.91,1,16.18,1,16.5v3.9c0,0.32,0.26,0.59,0.59,0.59h4.92l-0.3,1.13c0,0,0,0,0,0c0,0,0,0,0,0l-1.8,6.85
		c-0.08,0.31,0.1,0.64,0.42,0.72c0.05,0.01,0.1,0.02,0.15,0.02c0.26,0,0.5-0.17,0.57-0.44l0.36-1.39l10.09-2.62l10.08,2.61
		l0.36,1.39c0.07,0.26,0.31,0.44,0.57,0.44c0.05,0,0.1-0.01,0.15-0.02c0.31-0.08,0.5-0.4,0.42-0.72l-1.79-6.83c0-0.01,0-0.01,0-0.02
		c0-0.01-0.01-0.01-0.01-0.02l-0.29-1.11h4.92c0.32,0,0.59-0.26,0.59-0.59v-3.9C31,16.18,30.74,15.91,30.41,15.91z M5.05,5.13h2.92
		c0.32,0,0.59-0.26,0.59-0.59V3.48h2.68v1.06c0,0.32,0.26,0.59,0.59,0.59h15.11v10.78H5.05V5.13z M6.26,26.57l0.94-3.59l6.46,1.67
		L6.26,26.57z M18.35,24.65l6.45-1.67l0.94,3.59L18.35,24.65z M24.5,21.84l-8.5,2.2l-8.51-2.2l0.22-0.85h16.55L24.5,21.84z
		 M29.83,19.81H2.17v-2.72h2.29h0.01h23.05c0,0,0,0,0.01,0s0,0,0.01,0h2.28V19.81z"/>
</g>
</svg>
