<?xml version="1.0" encoding="utf-8"?>
<!-- Generator: Adobe Illustrator 23.0.1, SVG Export Plug-In . SVG Version: 6.00 Build 0)  -->
<svg version="1.1" id="Layer_1" xmlns="http://www.w3.org/2000/svg" xmlns:xlink="http://www.w3.org/1999/xlink" x="0px" y="0px"
	 viewBox="0 0 32 32" style="enable-background:new 0 0 32 32;" xml:space="preserve">
<style type="text/css">
	.st0{fill:#707070;}
</style>
<g>
	<path class="st0" d="M17.75,17.46c-1.46,0-2.82-0.57-3.82-1.59c-1.02-1-1.59-2.36-1.59-3.82V9.78h1v2.28
		c0,1.19,0.46,2.29,1.29,3.11c0.83,0.84,1.93,1.3,3.12,1.3c2.44,0,4.43-1.98,4.43-4.41V9.78h1v2.28
		C23.18,15.04,20.74,17.46,17.75,17.46z"/>
	<path class="st0" d="M22.77,7.84v1.17H12.75V7.84H22.77 M23.37,6.84H12.15c-0.22,0-0.4,0.18-0.4,0.4v2.37c0,0.22,0.18,0.4,0.4,0.4
		h11.22c0.22,0,0.4-0.18,0.4-0.4V7.24C23.77,7.02,23.59,6.84,23.37,6.84L23.37,6.84z"/>
	<g>
		<path class="st0" d="M16.85,7.35h-1V3.09c0-0.27-0.22-0.49-0.49-0.49s-0.49,0.22-0.49,0.49v4.25h-1V3.09
			c0-0.82,0.67-1.49,1.49-1.49c0.82,0,1.49,0.67,1.49,1.49V7.35z"/>
		<path class="st0" d="M21.65,7.35h-1V3.09c0-0.27-0.22-0.49-0.49-0.49c-0.27,0-0.49,0.22-0.49,0.49v4.25h-1V3.09
			c0-0.82,0.67-1.49,1.49-1.49c0.82,0,1.49,0.67,1.49,1.49V7.35z"/>
	</g>
	<path class="st0" d="M18.45,19.49h-1.38c-1.04,0-1.88-0.84-1.88-1.88v-0.9h1v0.9c0,0.49,0.4,0.88,0.88,0.88h1.38
		c0.49,0,0.88-0.4,0.88-0.88v-1.08h1v1.08C20.33,18.65,19.48,19.49,18.45,19.49z"/>
	<path class="st0" d="M13.53,30.4c-2.19,0-4.19-1.28-5.11-3.27c-0.21-0.43-0.41-1.41,0.37-2c0.47-0.35,0.89-0.34,1.16-0.27
		c0.71,0.19,1.06,0.98,1.1,1.07c0.44,0.95,1.42,1.58,2.49,1.58c1.52,0,2.75-1.23,2.75-2.75v-5.6h1v5.6c0,2.07-1.68,3.75-3.75,3.75
		c-1.46,0-2.79-0.85-3.41-2.18c-0.08-0.19-0.27-0.47-0.45-0.51c-0.07-0.02-0.18,0.02-0.29,0.11c-0.31,0.24-0.07,0.77-0.07,0.77
		c0.76,1.64,2.41,2.7,4.21,2.7c2.56,0,4.64-2.08,4.64-4.64v-5.6h1v5.6C19.17,27.87,16.64,30.4,13.53,30.4z"/>
	<path class="st0" d="M17.26,14.99c-0.1,0-0.2-0.03-0.29-0.09c-0.22-0.16-0.28-0.47-0.12-0.7l0.42-0.59h-0.02l-0.39-0.81l0.99-1.26
		c0.17-0.22,0.49-0.25,0.7-0.08c0.22,0.17,0.25,0.49,0.08,0.7l-0.38,0.48l0.39,0.76l-0.99,1.38C17.57,14.92,17.42,14.99,17.26,14.99
		z"/>
</g>
</svg>
